<svg width="28" height="28" viewBox="0 0 28 28" fill="none" xmlns="http://www.w3.org/2000/svg">
<path d="M14 0.666626C6.66669 0.666626 0.666687 6.66663 0.666687 14C0.666687 21.3333 6.66669 27.3333 14 27.3333C21.3334 27.3333 27.3334 21.3333 27.3334 14C27.3334 6.66663 21.3334 0.666626 14 0.666626ZM14 24.6666C8.13335 24.6666 3.33335 19.8666 3.33335 14C3.33335 8.13329 8.13335 3.33329 14 3.33329C19.8667 3.33329 24.6667 8.13329 24.6667 14C24.6667 19.8666 19.8667 24.6666 14 24.6666Z" fill="#FD9222"/>
<path d="M15.7334 12.6667H12.2667C11.6 12.6667 11.0667 12.1333 11.0667 11.4667C11.0667 10.8 11.6 10.2667 12.2667 10.2667H17.2C18 10.2667 18.5334 9.73332 18.5334 8.93332C18.5334 8.13332 18 7.59998 17.2 7.59998H15.3334V6.39998C15.3334 5.59998 14.8 5.06665 14 5.06665C13.2 5.06665 12.6667 5.59998 12.6667 6.39998V7.59998H12.2667C10.1334 7.59998 8.40002 9.33332 8.40002 11.4667C8.40002 13.6 10.1334 15.3333 12.2667 15.3333H15.6C16.2667 15.3333 16.8 15.8666 16.8 16.5333C16.8 17.2 16.2667 17.7333 15.6 17.7333H10.6667C9.86669 17.7333 9.33336 18.2667 9.33336 19.0667C9.33336 19.8667 9.86669 20.4 10.6667 20.4H12.6667V21.6C12.6667 22.4 13.2 22.9333 14 22.9333C14.8 22.9333 15.3334 22.4 15.3334 21.6V20.4H15.7334C17.8667 20.4 19.6 18.6667 19.6 16.5333C19.6 14.4 17.8667 12.6667 15.7334 12.6667Z" fill="#FD9222"/>
</svg>
