<svg width="170" height="22" viewBox="0 0 170 22" fill="none" xmlns="http://www.w3.org/2000/svg">
<path d="M4.822 16.168C4.29 16.168 3.772 16.1167 3.268 16.014C2.77333 15.9207 2.32067 15.79 1.91 15.622C1.50867 15.454 1.168 15.272 0.888 15.076L1.812 13.326C2.12 13.5407 2.44667 13.7273 2.792 13.886C3.14667 14.0353 3.51533 14.152 3.898 14.236C4.28067 14.3107 4.66333 14.348 5.046 14.348C5.466 14.348 5.82533 14.3013 6.124 14.208C6.432 14.1147 6.66533 13.984 6.824 13.816C6.992 13.648 7.076 13.4427 7.076 13.2C7.076 12.976 6.98733 12.794 6.81 12.654C6.63267 12.514 6.39933 12.3973 6.11 12.304C5.83 12.2013 5.51733 12.1033 5.172 12.01C4.82667 11.9167 4.47667 11.8093 4.122 11.688C3.77667 11.5573 3.45933 11.3987 3.17 11.212C2.89 11.016 2.66133 10.7687 2.484 10.47C2.30667 10.1713 2.218 9.798 2.218 9.35C2.218 8.678 2.4 8.09467 2.764 7.6C3.13733 7.10533 3.66 6.72267 4.332 6.452C5.004 6.172 5.79267 6.032 6.698 6.032C7.36067 6.032 7.986 6.10667 8.574 6.256C9.162 6.396 9.666 6.60133 10.086 6.872L9.232 8.608C8.85867 8.356 8.44333 8.16933 7.986 8.048C7.52867 7.91733 7.05733 7.852 6.572 7.852C6.13333 7.852 5.75533 7.90333 5.438 8.006C5.13 8.10867 4.892 8.25333 4.724 8.44C4.56533 8.61733 4.486 8.82267 4.486 9.056C4.486 9.28933 4.57 9.48067 4.738 9.63C4.91533 9.77 5.14867 9.89133 5.438 9.994C5.72733 10.0873 6.04467 10.1807 6.39 10.274C6.73533 10.3673 7.08067 10.4747 7.426 10.596C7.77133 10.7173 8.08867 10.8713 8.378 11.058C8.66733 11.2447 8.90067 11.4827 9.078 11.772C9.25533 12.052 9.344 12.4067 9.344 12.836C9.344 13.508 9.15733 14.096 8.784 14.6C8.41067 15.0947 7.88333 15.482 7.202 15.762C6.53 16.0327 5.73667 16.168 4.822 16.168ZM9.91373 16L11.8737 6.2H14.1557L12.1957 16H9.91373ZM14.0875 16L16.0475 6.2H17.8955L20.6815 13.144L19.7015 13.13L25.1335 6.2H27.0795L25.1335 16H23.0055L24.3075 9.434H24.7415L20.4155 14.964H19.4075L17.0975 9.42L17.5175 9.462L16.2155 16H14.0875ZM27.0386 16L28.9986 6.2H32.9606C34.1832 6.2 35.1259 6.47067 35.7886 7.012C36.4606 7.544 36.7966 8.29067 36.7966 9.252C36.7966 10.0733 36.6052 10.792 36.2226 11.408C35.8399 12.0147 35.2892 12.4813 34.5706 12.808C33.8612 13.1347 33.0166 13.298 32.0366 13.298H28.8586L30.0626 12.262L29.3206 16H27.0386ZM30.0066 12.528L29.2086 11.45H32.1346C32.8812 11.45 33.4599 11.282 33.8706 10.946C34.2906 10.6007 34.5006 10.1013 34.5006 9.448C34.5006 8.972 34.3419 8.622 34.0246 8.398C33.7072 8.16467 33.2592 8.048 32.6806 8.048H29.9226L31.1266 6.942L30.0066 12.528ZM36.7358 16L38.6958 6.2H40.9778L39.3818 14.152H44.2958L43.9178 16H36.7358ZM46.1893 16L46.9873 11.968L47.2393 13.396L44.3553 6.2H46.6233L48.8213 11.702L47.4493 11.716L51.8873 6.2H54.2253L48.4853 13.41L49.2553 11.968L48.4573 16H46.1893ZM61.785 16.168C61.029 16.168 60.3244 16.0467 59.671 15.804C59.027 15.552 58.467 15.1973 57.991 14.74C57.515 14.2827 57.1417 13.746 56.871 13.13C56.6097 12.514 56.479 11.8373 56.479 11.1C56.479 10.3627 56.6097 9.686 56.871 9.07C57.1417 8.454 57.515 7.91733 57.991 7.46C58.4764 7.00267 59.041 6.65267 59.685 6.41C60.329 6.158 61.0337 6.032 61.799 6.032C62.6484 6.032 63.4137 6.18133 64.095 6.48C64.7857 6.76933 65.3644 7.19867 65.831 7.768L64.375 9.112C64.039 8.72933 63.6657 8.44467 63.255 8.258C62.8444 8.062 62.3964 7.964 61.911 7.964C61.4537 7.964 61.0337 8.03867 60.651 8.188C60.2684 8.33733 59.937 8.552 59.657 8.832C59.377 9.112 59.1577 9.44333 58.999 9.826C58.8497 10.2087 58.775 10.6333 58.775 11.1C58.775 11.5667 58.8497 11.9913 58.999 12.374C59.1577 12.7567 59.377 13.088 59.657 13.368C59.937 13.648 60.2684 13.8627 60.651 14.012C61.0337 14.1613 61.4537 14.236 61.911 14.236C62.3964 14.236 62.8444 14.1427 63.255 13.956C63.6657 13.76 64.039 13.466 64.375 13.074L65.831 14.418C65.3644 14.9873 64.7857 15.4213 64.095 15.72C63.4137 16.0187 62.6437 16.168 61.785 16.168ZM73.6626 6.2H75.9306V16H73.6626V6.2ZM69.2106 16H66.9426V6.2H69.2106V16ZM73.8306 11.982H69.0426V10.064H73.8306V11.982ZM82.5893 16.168C81.8146 16.168 81.0959 16.042 80.4333 15.79C79.7799 15.538 79.2106 15.1833 78.7253 14.726C78.2493 14.2687 77.8759 13.732 77.6053 13.116C77.3439 12.5 77.2133 11.828 77.2133 11.1C77.2133 10.372 77.3439 9.7 77.6053 9.084C77.8759 8.468 78.2539 7.93133 78.7393 7.474C79.2246 7.01667 79.7939 6.662 80.4473 6.41C81.1006 6.158 81.8099 6.032 82.5753 6.032C83.3499 6.032 84.0593 6.158 84.7033 6.41C85.3566 6.662 85.9213 7.01667 86.3973 7.474C86.8826 7.93133 87.2606 8.468 87.5313 9.084C87.8019 9.69067 87.9373 10.3627 87.9373 11.1C87.9373 11.828 87.8019 12.5047 87.5313 13.13C87.2606 13.746 86.8826 14.2827 86.3973 14.74C85.9213 15.188 85.3566 15.538 84.7033 15.79C84.0593 16.042 83.3546 16.168 82.5893 16.168ZM82.5753 14.236C83.0139 14.236 83.4153 14.1613 83.7793 14.012C84.1526 13.8627 84.4793 13.648 84.7593 13.368C85.0393 13.088 85.2539 12.7567 85.4033 12.374C85.5619 11.9913 85.6413 11.5667 85.6413 11.1C85.6413 10.6333 85.5619 10.2087 85.4033 9.826C85.2539 9.44333 85.0393 9.112 84.7593 8.832C84.4886 8.552 84.1666 8.33733 83.7933 8.188C83.4199 8.03867 83.0139 7.964 82.5753 7.964C82.1366 7.964 81.7306 8.03867 81.3573 8.188C80.9933 8.33733 80.6713 8.552 80.3913 8.832C80.1113 9.112 79.8919 9.44333 79.7333 9.826C79.5839 10.2087 79.5093 10.6333 79.5093 11.1C79.5093 11.5573 79.5839 11.982 79.7333 12.374C79.8919 12.7567 80.1066 13.088 80.3773 13.368C80.6573 13.648 80.9839 13.8627 81.3573 14.012C81.7306 14.1613 82.1366 14.236 82.5753 14.236ZM93.9118 16.168C93.1558 16.168 92.4511 16.0467 91.7978 15.804C91.1538 15.552 90.5938 15.1973 90.1178 14.74C89.6418 14.2827 89.2684 13.746 88.9978 13.13C88.7364 12.514 88.6058 11.8373 88.6058 11.1C88.6058 10.3627 88.7364 9.686 88.9978 9.07C89.2684 8.454 89.6418 7.91733 90.1178 7.46C90.6031 7.00267 91.1678 6.65267 91.8118 6.41C92.4558 6.158 93.1604 6.032 93.9258 6.032C94.7751 6.032 95.5404 6.18133 96.2218 6.48C96.9124 6.76933 97.4911 7.19867 97.9578 7.768L96.5018 9.112C96.1658 8.72933 95.7924 8.44467 95.3818 8.258C94.9711 8.062 94.5231 7.964 94.0378 7.964C93.5804 7.964 93.1604 8.03867 92.7778 8.188C92.3951 8.33733 92.0638 8.552 91.7838 8.832C91.5038 9.112 91.2844 9.44333 91.1258 9.826C90.9764 10.2087 90.9018 10.6333 90.9018 11.1C90.9018 11.5667 90.9764 11.9913 91.1258 12.374C91.2844 12.7567 91.5038 13.088 91.7838 13.368C92.0638 13.648 92.3951 13.8627 92.7778 14.012C93.1604 14.1613 93.5804 14.236 94.0378 14.236C94.5231 14.236 94.9711 14.1427 95.3818 13.956C95.7924 13.76 96.1658 13.466 96.5018 13.074L97.9578 14.418C97.4911 14.9873 96.9124 15.4213 96.2218 15.72C95.5404 16.0187 94.7704 16.168 93.9118 16.168ZM103.624 16.168C102.85 16.168 102.131 16.042 101.468 15.79C100.815 15.538 100.246 15.1833 99.7603 14.726C99.2843 14.2687 98.9109 13.732 98.6403 13.116C98.3789 12.5 98.2483 11.828 98.2483 11.1C98.2483 10.372 98.3789 9.7 98.6403 9.084C98.9109 8.468 99.2889 7.93133 99.7743 7.474C100.26 7.01667 100.829 6.662 101.482 6.41C102.136 6.158 102.845 6.032 103.61 6.032C104.385 6.032 105.094 6.158 105.738 6.41C106.392 6.662 106.956 7.01667 107.432 7.474C107.918 7.93133 108.296 8.468 108.566 9.084C108.837 9.69067 108.972 10.3627 108.972 11.1C108.972 11.828 108.837 12.5047 108.566 13.13C108.296 13.746 107.918 14.2827 107.432 14.74C106.956 15.188 106.392 15.538 105.738 15.79C105.094 16.042 104.39 16.168 103.624 16.168ZM103.61 14.236C104.049 14.236 104.45 14.1613 104.814 14.012C105.188 13.8627 105.514 13.648 105.794 13.368C106.074 13.088 106.289 12.7567 106.438 12.374C106.597 11.9913 106.676 11.5667 106.676 11.1C106.676 10.6333 106.597 10.2087 106.438 9.826C106.289 9.44333 106.074 9.112 105.794 8.832C105.524 8.552 105.202 8.33733 104.828 8.188C104.455 8.03867 104.049 7.964 103.61 7.964C103.172 7.964 102.766 8.03867 102.392 8.188C102.028 8.33733 101.706 8.552 101.426 8.832C101.146 9.112 100.927 9.44333 100.768 9.826C100.619 10.2087 100.544 10.6333 100.544 11.1C100.544 11.5573 100.619 11.982 100.768 12.374C100.927 12.7567 101.142 13.088 101.412 13.368C101.692 13.648 102.019 13.8627 102.392 14.012C102.766 14.1613 103.172 14.236 103.61 14.236ZM110.257 16V6.2H112.525V14.152H117.439V16H110.257ZM117.053 16L121.421 6.2H123.661L128.043 16H125.663L122.079 7.348H122.975L119.377 16H117.053ZM119.237 13.9L119.839 12.178H124.879L125.495 13.9H119.237ZM130.177 16V8.048H127.041V6.2H135.581V8.048H132.445V16H130.177ZM138.468 10.148H143.186V11.912H138.468V10.148ZM138.636 14.18H143.97V16H136.382V6.2H143.788V8.02H138.636V14.18Z" fill="#111111"/>
<g clip-path="url(#clip0_149_3766)">
<path d="M151.588 13.6747L158.66 2.24L159.08 1.79762L164.485 5.40119L164.522 7.57579L165.841 9.72801L160.014 18.9658L151.588 13.6747Z" fill="#FCF1E0"/>
<path d="M163.198 16.171L153.888 10.3539M156.456 6.14288L165.765 11.96M155.976 17.4734L163.677 4.84042M166.834 10.2054C164.84 8.95885 164.056 7.98468 165.34 5.87918L159.023 1.93188L151.321 14.5649L160.63 20.382L166.834 10.2054Z" stroke="#FD9222" stroke-width="1.8" stroke-linecap="round" stroke-linejoin="round"/>
</g>
<defs>
<clipPath id="clip0_149_3766">
<rect width="21" height="21" fill="white" transform="translate(149 0.5)"/>
</clipPath>
</defs>
</svg>
